<?xml version="1.0" encoding="UTF-8" standalone="no"?>
<!-- Created with Inkscape (http://www.inkscape.org/) -->

<svg
   xmlns:dc="http://purl.org/dc/elements/1.1/"
   xmlns:cc="http://creativecommons.org/ns#"
   xmlns:rdf="http://www.w3.org/1999/02/22-rdf-syntax-ns#"
   xmlns:svg="http://www.w3.org/2000/svg"
   xmlns="http://www.w3.org/2000/svg"
   xmlns:sodipodi="http://sodipodi.sourceforge.net/DTD/sodipodi-0.dtd"
   xmlns:inkscape="http://www.inkscape.org/namespaces/inkscape"
   width="3987.4414"
   height="1579.4814"
   id="svg2"
   version="1.1"
   inkscape:version="0.48.2 r9819"
   sodipodi:docname="Error404.svg"
   inkscape:export-filename="/home/serafin/Development/Pupils/cusl6-pupils/trunk/pupils/media/img/Error404.png"
   inkscape:export-xdpi="90"
   inkscape:export-ydpi="90">
  <defs
     id="defs4">
    <inkscape:perspective
       sodipodi:type="inkscape:persp3d"
       inkscape:vp_x="-0.97484 : 701.24102 : 1"
       inkscape:vp_y="0 : 1000 : 0"
       inkscape:vp_z="546.71546 : 890.11719 : 1"
       inkscape:persp3d-origin="372.04724 : 350.78739 : 1"
       id="perspective2985" />
  </defs>
  <sodipodi:namedview
     id="base"
     pagecolor="#ffffff"
     bordercolor="#666666"
     borderopacity="1.0"
     inkscape:pageopacity="0.0"
     inkscape:pageshadow="2"
     inkscape:zoom="0.84924039"
     inkscape:cx="918.26188"
     inkscape:cy="245.01865"
     inkscape:document-units="px"
     inkscape:current-layer="layer1"
     showgrid="false"
     inkscape:window-width="1366"
     inkscape:window-height="744"
     inkscape:window-x="0"
     inkscape:window-y="24"
     inkscape:window-maximized="1"
     fit-margin-top="0"
     fit-margin-left="0"
     fit-margin-right="0"
     fit-margin-bottom="0" />
  <metadata
     id="metadata7">
    <rdf:RDF>
      <cc:Work
         rdf:about="">
        <dc:format>image/svg+xml</dc:format>
        <dc:type
           rdf:resource="http://purl.org/dc/dcmitype/StillImage" />
        <dc:title />
      </cc:Work>
    </rdf:RDF>
  </metadata>
  <g
     inkscape:label="Capa 1"
     inkscape:groupmode="layer"
     id="layer1"
     transform="translate(225.33011,-15.943631)">
    <flowRoot
       xml:space="preserve"
       id="flowRoot4029"
       style="font-size:40px;font-style:normal;font-weight:normal;line-height:125%;letter-spacing:0px;word-spacing:0px;fill:#000000;fill-opacity:1;stroke:none;font-family:Sans"
       transform="matrix(2.6050402,0,0,2.6050402,-5614.3035,1297.2221)"><flowRegion
         id="flowRegion4031"><rect
           id="rect4033"
           width="1537.3638"
           height="54.367897"
           x="2065.0115"
           y="65.955208" /></flowRegion><flowPara
         id="flowPara4037"
         style="font-weight:bold;-inkscape-font-specification:Sans Bold">Es posible que Ninja Rubber haya ocultado una de nuestras páginas</flowPara></flowRoot>    <g
       id="g3102"
       transform="translate(-47.82856,0)">
      <flowRoot
         transform="matrix(3.2227705,0,0,3.2227705,-4612.1162,-9.6662296)"
         style="font-size:40px;font-style:normal;font-weight:normal;line-height:125%;letter-spacing:0px;word-spacing:0px;fill:#000000;fill-opacity:1;stroke:none;font-family:Sans"
         id="flowRoot4029-9"
         xml:space="preserve"><flowRegion
           id="flowRegion4031-7"><rect
             y="65.955208"
             x="2065.0115"
             height="104.32679"
             width="509.74985"
             id="rect4033-1" /></flowRegion><flowPara
           style="font-weight:bold;-inkscape-font-specification:Sans Bold"
           id="flowPara4071">Error 404: Not Found</flowPara><flowPara
           id="flowPara3068"
           style="font-weight:bold;-inkscape-font-specification:Sans Bold">Página no encontrada</flowPara></flowRoot>      <g
         id="g3070">
        <path
           id="path3003"
           style="fill:#171500;fill-opacity:1;stroke:#000000;stroke-width:6.73493958px;stroke-linecap:butt;stroke-linejoin:miter;stroke-opacity:1"
           d="m 1625.5945,1190.0961 c 37.2632,-117.0851 87.9713,-503.33011 9.98,-786.42394 11.2127,-67.5406 -582.1666,-86.49333 -868.2599,-131.73596 m 858.2799,914.1679 c 102.8533,-16.9592 204.9267,-35.2184 292.1222,-78.2739 11.366,-273.30865 47.6861,-546.61736 0,-819.926 -274.7962,-70.03185 -510.6024,-86.45238 -743.5801,-98.98374 -161.6839,-1.33554 -291.03639,29.66027 -399.55122,81.49371 -25.90238,215.74727 -9.72674,479.58368 0,736.04993 258.53362,70.6526 556.47142,124.4177 851.00912,179.64 z"
           inkscape:connector-curvature="0"
           sodipodi:nodetypes="cccccccccc" />
        <g
           id="g3962"
           transform="matrix(6.7349398,0,0,6.7349398,-374.39724,-1534.2444)">
          <path
             sodipodi:nodetypes="cccccc"
             inkscape:connector-curvature="0"
             id="path3960"
             d="m 294.64365,433.42191 c -1.76428,1.34453 -2.2033,3.13081 -2.30518,5.02948 12.10311,6.19977 15.96923,8.32823 27.66214,7.22987 2.72242,-0.64892 4.14369,-3.28485 4.40079,-5.02947 -0.9027,-4.61216 -6.00337,-3.49405 -13.6215,-5.86773 -0.46075,-2.59907 -2.01073,-3.29198 -3.56255,-3.98167"
             style="fill:#171500;fill-opacity:1;stroke:#000000;stroke-width:1px;stroke-linecap:butt;stroke-linejoin:miter;stroke-opacity:1" />
          <path
             sodipodi:nodetypes="cccc"
             inkscape:connector-curvature="0"
             id="path3933"
             d="m 279.76847,398.87758 c 13.21905,9.29613 31.70187,22.32315 27.17259,31.73211 l -12.21053,2.69706 c -4.93951,-10.6512 -28.84288,-24.67416 -50.52585,-40.65283"
             style="fill:#171500;fill-opacity:1;stroke:#000000;stroke-width:1px;stroke-linecap:butt;stroke-linejoin:miter;stroke-opacity:1" />
        </g>
        <g
           id="g3929"
           transform="matrix(6.7349398,0,0,6.7349398,-374.39724,-1534.2444)">
          <path
             sodipodi:nodetypes="cccccc"
             inkscape:connector-curvature="0"
             id="path3927"
             d="m 144.62607,409.54672 c -7.5563,8.05716 -10.02573,10.30074 -12.15096,12.15096 2.06155,2.8477 1.80792,6.15844 7.40912,8.29821 5.00041,0.62177 8.52159,0.0602 11.55823,-0.88909 6.03848,-6.01375 22.49806,-14.23803 16.8928,-17.7819 l -9.18731,-7.11275"
             style="fill:#100f00;fill-opacity:1;stroke:#000000;stroke-width:1px;stroke-linecap:butt;stroke-linejoin:miter;stroke-opacity:1" />
          <path
             sodipodi:nodetypes="cccccc"
             inkscape:connector-curvature="0"
             id="path3925"
             d="m 172.70857,376.53645 c -13.4396,3.97619 -34.54148,4.94219 -38.17,12.77273 4.48507,6.71989 9.03831,13.43221 10.05895,20.53704 l 14.66932,-5.4486 c -3.52526,-2.93386 -5.94424,-5.86773 -6.70597,-8.80159 6.58005,-12.6733 27.15415,-9.3534 40.73122,-14.0301"
             style="fill:#171500;fill-opacity:1;stroke:#000000;stroke-width:1px;stroke-linecap:butt;stroke-linejoin:miter;stroke-opacity:1" />
        </g>
        <g
           id="g3891"
           transform="matrix(6.7349398,0,0,6.7349398,-980.5936,-829.39712)">
          <path
             inkscape:connector-curvature="0"
             id="path3016"
             d="m 304.64822,189.05889 c 1.18214,9.68278 11.52622,15.13698 22.8201,20.15281 l 9.78004,2.37092 c 25.59474,-3.65279 32.26939,-12.56115 44.7511,-19.85645 6.58016,8.00185 8.35922,16.0037 9.48367,24.00555 l -2.07455,14.52188 c -1.71708,6.75987 -6.12693,9.48059 -10.9655,11.55824 -24.14191,-6.70058 -34.66309,-12.75255 -42.38018,-18.67099 -8.73132,1.63229 -14.44349,3.86842 -34.37833,3.26001 -15.19664,-5.59913 -29.25367,-11.55438 -32.00741,-21.04191 -1.87698,3.67804 -3.75395,5.98144 -5.63093,3.55638 4.08416,-7.55408 0.0484,-5.27872 -0.59273,-7.11276 l -22.52374,2.07456 15.70734,-6.52002 -17.78189,-28.7474 19.85645,12.15096 5.33457,13.92915 c 0.88907,-4.09985 2.43962,-5.05762 4.44547,-3.85275 4.20023,2.78631 4.01806,5.83041 3.55638,8.89095 6.20677,-6.09817 17.70974,-9.3075 32.60014,-10.66913 z"
             style="fill:#2e2e2e;fill-opacity:1;stroke:#000000;stroke-width:1px;stroke-linecap:butt;stroke-linejoin:miter;stroke-opacity:1" />
          <g
             transform="translate(-0.20956163,-18.650985)"
             id="g3887">
            <path
               inkscape:connector-curvature="0"
               style="fill:#ffffff;fill-opacity:1;stroke:#000000;stroke-width:1px;stroke-linecap:butt;stroke-linejoin:miter;stroke-opacity:1"
               d="m 386.06612,233.93817 c -0.94949,-4.63267 -0.69209,-9.80174 -8.4464,-11.41005 -10.38294,8.53177 -23.18105,8.00663 -34.97106,11.26186 7.73824,6.23169 9.59313,12.9404 30.82195,18.07826 11.3283,-0.0762 12.55566,-8.51173 12.59551,-17.93007 z"
               id="path3885" />
            <path
               inkscape:connector-curvature="0"
               style="fill:#ffffff;fill-opacity:1;stroke:#000000;stroke-width:1px;stroke-linecap:butt;stroke-linejoin:miter;stroke-opacity:1"
               d="m 297.82135,214.83229 c 4.4838,6.39163 15.98724,12.78326 23.9948,19.17489 -17.67048,11.17618 -31.59472,2.45045 -44.84619,-9.8494 z"
               id="path3883" />
          </g>
        </g>
        <path
           style="fill:#171500;fill-opacity:1;stroke:#000000;stroke-width:6.73493958px;stroke-linecap:butt;stroke-linejoin:miter;stroke-opacity:1"
           d="m 1789.609,710.79673 458.7375,153.95136 204.5899,19.95994 c 10.8582,27.91639 4.7768,51.92363 -18.9619,71.85602 -39.5531,-34.67067 -108.9582,-22.05363 -165.668,-19.95994 l -27.944,-31.93607 -465.068,-115.76796 0,0"
           id="path3787"
           inkscape:connector-curvature="0"
           sodipodi:nodetypes="cccccccc" />
        <path
           inkscape:connector-curvature="0"
           style="fill:none;stroke:#000000;stroke-width:6.73493958px;stroke-linecap:round;stroke-linejoin:miter;stroke-opacity:1"
           d="M 106.76159,517.53002 C 90.796582,576.70152 97.301059,625.12998 139.22344,627.618"
           id="path3908" />
        <g
           id="g3917"
           transform="matrix(6.7349398,0,0,6.7349398,-374.39724,-1534.2444)">
          <path
             inkscape:connector-curvature="0"
             id="path3910"
             d="m 103.90443,311.89414 64.37356,20.62384"
             style="fill:none;stroke:#000000;stroke-width:1px;stroke-linecap:round;stroke-linejoin:miter;stroke-opacity:1" />
          <path
             inkscape:connector-curvature="0"
             id="path3825"
             d="m 169.11624,326.02157 -62.86849,-26.1952 2.93386,-7.96334 c -12.029177,3.8051 -26.053623,4.41776 -40.864519,3.77211 -1.05136,3.75956 -0.478933,5.84275 1.25737,8.48724 l 34.813429,1.6241"
             style="fill:none;stroke:#000000;stroke-width:1px;stroke-linecap:round;stroke-linejoin:miter;stroke-opacity:1" />
        </g>
        <path
           id="path3829"
           style="fill:#df5024;fill-opacity:1;stroke:#000000;stroke-width:6.73493958px;stroke-linecap:butt;stroke-linejoin:miter;stroke-opacity:1"
           d="m 136.52412,516.11858 42.34155,208.88504 m -19.0537,-209.59072 37.4017,215.23621 M 116.76473,517.53002 161.92904,722.1808 330.58952,765.22804 324.94396,528.1154 M 303.06753,67.29822 44.784093,47.538782 123.82165,456.84047 M 322.82696,233.84163 95.593954,205.61395 41.961325,162.56671 M 317.1814,89.880339 293.18785,50.361598 10.910855,19.311101 104.06227,454.01766 M 332.70665,437.08103 317.1814,91.291713 74.423176,75.766531 143.58104,458.25184"
           inkscape:connector-curvature="0"
           sodipodi:nodetypes="cccccccccccccccccccccc" />
        <path
           style="fill:#2f5498;fill-opacity:1;stroke:#2f5498;stroke-width:1.7642312;stroke-linecap:round;stroke-linejoin:round;stroke-miterlimit:4;stroke-opacity:1;stroke-dasharray:none"
           d="M 55.363424,168.73052 44.800008,160.23662 30.124385,91.90567 C 22.052789,54.323695 15.478262,23.533369 15.514328,23.482857 15.575616,23.39665 286.60849,53.13417 289.6753,53.563321 c 1.38311,0.193293 1.46949,0.293643 4.31254,4.992139 l 2.90115,4.794604 -2.19546,-0.219559 C 293.48603,63.009949 236.36905,58.63143 167.76692,53.400941 99.164792,48.170385 42.42646,43.818536 41.681744,43.730174 c -1.244408,-0.147495 -1.338825,-0.099 -1.166161,0.603451 0.548426,2.231554 25.629975,132.671785 25.529887,132.771865 -0.06533,0.0674 -4.872164,-3.70361 -10.682046,-8.37524 z"
           id="path3838"
           inkscape:connector-curvature="0" />
        <path
           style="fill:#2f5498;fill-opacity:1;stroke:#2f5498;stroke-width:1.7642312;stroke-linecap:round;stroke-linejoin:round;stroke-miterlimit:4;stroke-opacity:1;stroke-dasharray:none"
           d="M 83.804145,191.55813 74.821197,184.3277 62.026192,118.08418 C 54.988935,81.650242 49.314566,51.757279 49.416472,51.65538 49.554202,51.517313 288.0396,69.583049 299.41833,70.593155 l 1.98041,0.175782 4.96244,8.159043 c 4.46574,7.342364 4.88559,8.16901 4.19439,8.258181 -0.42228,0.05388 -54.19777,-3.32403 -119.50079,-7.507842 C 125.75176,75.494507 71.838292,72.115521 71.247079,72.169467 l -1.074937,0.09833 11.381503,62.806613 c 6.259824,34.54364 11.348192,63.01089 11.307479,63.26055 -0.04041,0.24987 -4.116355,-2.79978 -9.056979,-6.77656 l 0,0 z"
           id="path3840"
           inkscape:connector-curvature="0" />
        <path
           style="fill:#2f5498;fill-opacity:1;stroke:#2f5498;stroke-width:1.7642312;stroke-linecap:round;stroke-linejoin:round;stroke-miterlimit:4;stroke-opacity:1;stroke-dasharray:none"
           d="M 209.65096,216.24242 C 150.11234,208.82295 101.27275,202.60902 101.11854,202.43371 100.80907,202.08215 78.681368,79.893905 78.893708,79.709435 79.060599,79.564633 313.49853,94.561257 313.6626,94.727407 c 0.0673,0.06735 1.40592,28.861573 2.97664,63.987453 1.57072,35.12581 2.95596,65.49264 3.07834,67.48181 l 0.22225,3.61673 -1.01846,-0.0404 c -0.56034,-0.0202 -49.73192,-6.11102 -109.27054,-13.53043 l 0,0 z"
           id="path3842"
           inkscape:connector-curvature="0" />
        <path
           style="fill:#df5024;fill-opacity:1;stroke:#df5024;stroke-width:3.52846241;stroke-linecap:round;stroke-linejoin:round;stroke-miterlimit:4;stroke-opacity:1;stroke-dasharray:none"
           d="m 146.42747,452.94289 c -1.31339,-5.74766 -43.70815,-242.08822 -43.46871,-242.32764 0.24811,-0.24785 216.7176,26.38513 216.98787,26.69703 0.27748,0.32058 8.93134,198.79151 8.67858,199.04353 -0.16636,0.16568 -5.63486,1.44815 -12.15212,2.84942 -43.36903,9.32507 -88.45397,13.99144 -144.88614,14.99595 l -24.77119,0.44114 -0.38827,-1.69922 0,0 z"
           id="path3844"
           inkscape:connector-curvature="0" />
        <path
           style="fill:#df5024;fill-opacity:1;stroke:#df5024;stroke-width:3.52846241;stroke-linecap:round;stroke-linejoin:round;stroke-miterlimit:4;stroke-opacity:1;stroke-dasharray:none"
           d="M 102.27774,325.5412 C 88.590627,254.65825 77.484267,196.57748 77.596942,196.47275 c 0.253436,-0.23572 17.081801,13.08572 17.296612,13.69193 0.269667,0.76105 43.950646,242.82159 43.950646,243.55489 0,0.40611 -2.4506,0.69969 -5.8404,0.69969 l -5.8404,0 -24.88566,-128.87806 z"
           id="path3846"
           inkscape:connector-curvature="0" />
        <path
           style="fill:#df5024;fill-opacity:1;stroke:#df5024;stroke-width:3.52846241;stroke-linecap:round;stroke-linejoin:round;stroke-miterlimit:4;stroke-opacity:1;stroke-dasharray:none"
           d="m 111.56646,453.90134 c -3.05087,-0.21552 -3.69935,-0.50714 -4.02359,-1.81015 -0.96873,-3.89272 -59.732997,-278.62372 -59.732997,-279.2599 0,-0.39534 4.582985,2.9563 10.184407,7.44784 7.468772,5.98884 10.289082,8.67419 10.57696,10.07089 0.215923,1.04741 11.682003,60.49457 25.480231,132.10476 13.798229,71.61012 25.224279,130.59722 25.391219,131.08234 0.31088,0.90349 -0.0216,0.91885 -7.87623,0.36436 z"
           id="path3848"
           inkscape:connector-curvature="0" />
        <path
           style="fill:#df5024;fill-opacity:1;stroke:#df5024;stroke-width:3.52846241;stroke-linecap:round;stroke-linejoin:round;stroke-miterlimit:4;stroke-opacity:1;stroke-dasharray:none"
           d="m 168.95282,720.10725 c -1.87648,-0.5159 -3.53539,-1.06116 -3.68649,-1.21229 -0.15106,-0.15086 -9.97618,-44.23879 -21.83353,-97.9727 -11.85735,-53.73391 -21.71686,-98.20781 -21.91002,-98.83086 -0.29183,-0.94128 0.63625,-1.25317 5.48592,-1.8439 3.21041,-0.3913 6.02115,-0.51657 6.24607,-0.27882 0.22495,0.23774 9.38303,44.89113 20.35134,99.22944 10.9683,54.3383 20.10737,99.51142 20.30904,100.38474 0.42383,1.83534 -0.0202,1.88222 -4.96233,0.52398 l 0,0 z"
           id="path3850"
           inkscape:connector-curvature="0" />
        <path
           style="fill:#df5024;fill-opacity:1;stroke:#df5024;stroke-width:3.52846241;stroke-linecap:round;stroke-linejoin:round;stroke-miterlimit:4;stroke-opacity:1;stroke-dasharray:none"
           d="m 187.2314,724.74547 c -2.30278,-0.65936 -4.44843,-1.6537 -4.7681,-2.21008 -0.68673,-1.19518 -40.92757,-200.47369 -41.26357,-203.66612 1.90317,0.91979 3.13135,1.80045 7.08107,1.29061 7.06433,-0.91164 7.53959,-3.37272 7.86892,-1.93043 0.41541,1.81931 36.32711,206.92779 36.32711,207.48093 0,0.51253 -0.23323,0.4701 -5.24543,-0.96491 z"
           id="path3852"
           inkscape:connector-curvature="0"
           sodipodi:nodetypes="ccccssc" />
        <path
           style="fill:#171500;fill-opacity:1;stroke:#171500;stroke-width:4.98999929;stroke-linecap:round;stroke-linejoin:round;stroke-miterlimit:4;stroke-opacity:1;stroke-dasharray:none"
           d="m 543.721,632.25804 -214.07094,-68.66103 -0.27343,-17.20413 c -0.23707,-14.90921 -0.0606,-17.36173 1.34227,-18.38571 0.94484,-0.69087 1.47293,-2.19438 1.27162,-3.62064 -0.30172,-2.13794 -1.02189,-2.53086 -5.83326,-3.18246 -3.01901,-0.40881 -55.56367,-3.00971 -116.76601,-5.77959 -61.20235,-2.76988 -111.81422,-5.21884 -112.470843,-5.44217 -2.289105,-0.77849 -9.228087,-16.85513 -10.133943,-23.47887 -0.827151,-6.04832 -0.160695,-17.07227 1.410539,-23.33266 l 0.706246,-2.81386 8.098509,0.66945 c 16.090292,1.33056 94.081282,0.76132 118.377492,-0.86396 48.83708,-3.26691 92.51857,-9.92784 127.23699,-19.40215 6.03356,-1.64649 11.09783,-2.86585 11.25401,-2.70967 0.22024,0.22024 -14.09831,39.83603 -17.19383,47.57245 -0.52936,1.32261 35.80719,16.77761 209.73883,89.20852 115.70842,48.18486 210.66891,87.88396 211.02324,88.22024 0.99704,0.94612 2.1803,38.04763 1.2104,37.95172 -0.47144,-0.0471 -97.18861,-30.98213 -214.92769,-68.74568 z"
           id="path3921"
           inkscape:connector-curvature="0" />
        <path
           style="fill:#171500;fill-opacity:1;stroke:#171500;stroke-width:4.98999929;stroke-linecap:round;stroke-linejoin:round;stroke-miterlimit:4;stroke-opacity:1;stroke-dasharray:none"
           d="m 127.40808,620.87889 c -6.81785,-2.80443 -10.03359,-5.23999 -14.3173,-10.84373 -9.21267,-12.05163 -12.45405,-33.09132 -9.04394,-58.70396 1.17078,-8.79354 4.18801,-23.97079 6.18867,-31.13023 1.56439,-5.59822 3.48713,1.19477 14.12669,49.90873 6.20297,28.40077 11.25535,51.97461 11.22749,52.38625 -0.0843,1.2469 -2.26827,0.81526 -8.18161,-1.61706 l 0,0 z"
           id="path3923"
           inkscape:connector-curvature="0" />
        <g
           transform="matrix(10.472799,1.5215084,-0.47317283,10.627528,-761.14567,-4040.911)"
           style="font-size:40px;font-style:normal;font-variant:normal;font-weight:bold;font-stretch:normal;line-height:125%;letter-spacing:0px;word-spacing:0px;fill:#ffffff;fill-opacity:1;stroke:none;font-family:Courier New;-inkscape-font-specification:Courier New Bold"
           id="flowRoot3941">
          <path
             d="m 195.21484,439.64022 0,5.03906 1.44532,0 c 0.96353,10e-6 1.64712,0.18881 2.05078,0.56641 0.41665,0.36459 0.62499,0.84636 0.625,1.44531 -1e-5,0.58594 -0.20835,1.06771 -0.625,1.44531 -0.40366,0.36459 -1.08725,0.54688 -2.05078,0.54688 l -6.07422,0 c -0.96355,0 -1.65365,-0.18229 -2.07032,-0.54688 -0.40364,-0.3776 -0.60546,-0.86588 -0.60546,-1.46484 0,-0.58593 0.20833,-1.06119 0.625,-1.42578 0.41666,-0.3776 1.10025,-0.5664 2.05078,-0.56641 l 0.625,0 0,-15.66406 -0.625,0 c -0.96355,2e-5 -1.65365,-0.18227 -2.07032,-0.54687 -0.40364,-0.37759 -0.60546,-0.86587 -0.60546,-1.46485 0,-0.59893 0.20182,-1.0807 0.60546,-1.44531 0.41667,-0.37758 1.10677,-0.56638 2.07032,-0.56641 l 9.0625,0.0195 c 2.8255,3e-5 5.013,0.70315 6.5625,2.10938 1.56248,1.39325 2.34373,3.09247 2.34375,5.09766 -2e-5,1.25001 -0.36461,2.38933 -1.09375,3.41796 -0.72919,1.01564 -1.82945,1.92059 -3.30078,2.71485 0.84633,0.7422 1.75128,1.69272 2.71484,2.85156 0.59894,0.7422 1.40623,1.90105 2.42187,3.47656 1.01561,10e-6 1.68618,0.10417 2.01172,0.3125 0.58592,0.40365 0.87889,0.97006 0.87891,1.69922 -2e-5,0.58594 -0.20185,1.06771 -0.60547,1.44531 -0.40367,0.36459 -1.08726,0.54688 -2.05078,0.54688 l -2.28516,0 c -3.2422,-5.01302 -5.931,-8.02734 -8.0664,-9.04297 l -3.96485,0 m 0,-4.00391 3.125,0 c 1.15885,2e-5 2.194,-0.17576 3.10547,-0.52734 1.22395,-0.46874 2.04426,-0.96353 2.46094,-1.48437 0.42967,-0.52082 0.64451,-1.03514 0.64453,-1.54297 -2e-5,-0.75519 -0.40366,-1.45181 -1.21094,-2.08985 -0.8073,-0.65102 -1.98569,-0.97654 -3.53515,-0.97656 l -4.58985,0 0,6.62109"
             id="path3950"
             inkscape:connector-curvature="0" />
        </g>
      </g>
    </g>
  </g>
</svg>
