<?xml version="1.0" encoding="UTF-8" standalone="no"?>
<!-- Created with Inkscape (http://www.inkscape.org/) -->

<svg
   xmlns:dc="http://purl.org/dc/elements/1.1/"
   xmlns:cc="http://creativecommons.org/ns#"
   xmlns:rdf="http://www.w3.org/1999/02/22-rdf-syntax-ns#"
   xmlns:svg="http://www.w3.org/2000/svg"
   xmlns="http://www.w3.org/2000/svg"
   xmlns:sodipodi="http://sodipodi.sourceforge.net/DTD/sodipodi-0.dtd"
   xmlns:inkscape="http://www.inkscape.org/namespaces/inkscape"
   width="3788.0742"
   height="1456.6772"
   id="svg2"
   version="1.1"
   inkscape:version="0.48.2 r9819"
   sodipodi:docname="AngryRubber.svg"
   inkscape:export-filename="/home/serafin/AngryRubber.png"
   inkscape:export-xdpi="90"
   inkscape:export-ydpi="90">
  <defs
     id="defs4">
    <inkscape:perspective
       sodipodi:type="inkscape:persp3d"
       inkscape:vp_x="-0.97484 : 701.24102 : 1"
       inkscape:vp_y="0 : 1000 : 0"
       inkscape:vp_z="546.71546 : 890.11719 : 1"
       inkscape:persp3d-origin="372.04724 : 350.78739 : 1"
       id="perspective2985" />
  </defs>
  <sodipodi:namedview
     id="base"
     pagecolor="#ffffff"
     bordercolor="#666666"
     borderopacity="1.0"
     inkscape:pageopacity="0.0"
     inkscape:pageshadow="2"
     inkscape:zoom="0.28474417"
     inkscape:cx="2419.7811"
     inkscape:cy="611.51118"
     inkscape:document-units="px"
     inkscape:current-layer="layer1"
     showgrid="false"
     inkscape:window-width="1366"
     inkscape:window-height="744"
     inkscape:window-x="0"
     inkscape:window-y="24"
     inkscape:window-maximized="1"
     fit-margin-top="0"
     fit-margin-left="0"
     fit-margin-right="0"
     fit-margin-bottom="0" />
  <metadata
     id="metadata7">
    <rdf:RDF>
      <cc:Work
         rdf:about="">
        <dc:format>image/svg+xml</dc:format>
        <dc:type
           rdf:resource="http://purl.org/dc/dcmitype/StillImage" />
        <dc:title></dc:title>
      </cc:Work>
    </rdf:RDF>
  </metadata>
  <g
     inkscape:label="Capa 1"
     inkscape:groupmode="layer"
     id="layer1"
     transform="translate(-7.5433849,-15.943631)">
    <g
       id="g3993"
       transform="matrix(6.7349398,0,0,6.7349398,-374.39724,-1534.2444)">
      <path
         sodipodi:nodetypes="cccccccccc"
         inkscape:connector-curvature="0"
         d="m 296.95763,404.50851 c 5.53282,-17.38472 13.06192,-74.73416 1.48182,-116.76777 1.66485,-10.02839 -86.43976,-12.84248 -128.91873,-19.56008 m 127.43691,135.73512 c 15.2716,-2.51809 30.4274,-5.2292 43.37414,-11.62206 1.68761,-40.58071 7.0804,-81.16143 0,-121.74214 -40.80159,-10.39829 -75.81396,-12.8364 -110.40636,-14.69705 -24.00672,-0.1983 -43.21291,4.40394 -59.32513,12.10014 -3.84597,32.03403 -1.44422,71.20831 0,109.28827 38.38692,10.49046 82.62456,18.47347 126.35735,26.67284 z"
         style="fill:#171500;fill-opacity:1;stroke:#000000;stroke-width:1px;stroke-linecap:butt;stroke-linejoin:miter;stroke-opacity:1"
         id="path3003" />
      <g
         id="g3962">
        <path
           style="fill:#171500;fill-opacity:1;stroke:#000000;stroke-width:1px;stroke-linecap:butt;stroke-linejoin:miter;stroke-opacity:1"
           d="m 294.64365,433.42191 c -1.76428,1.34453 -2.2033,3.13081 -2.30518,5.02948 12.10311,6.19977 15.96923,8.32823 27.66214,7.22987 2.72242,-0.64892 4.14369,-3.28485 4.40079,-5.02947 -0.9027,-4.61216 -6.00337,-3.49405 -13.6215,-5.86773 -0.46075,-2.59907 -2.01073,-3.29198 -3.56255,-3.98167"
           id="path3960"
           inkscape:connector-curvature="0"
           sodipodi:nodetypes="cccccc" />
        <path
           style="fill:#171500;fill-opacity:1;stroke:#000000;stroke-width:1px;stroke-linecap:butt;stroke-linejoin:miter;stroke-opacity:1"
           d="m 279.76847,398.87758 c 13.21905,9.29613 31.70187,22.32315 27.17259,31.73211 l -12.21053,2.69706 c -4.93951,-10.6512 -28.84288,-24.67416 -50.52585,-40.65283"
           id="path3933"
           inkscape:connector-curvature="0"
           sodipodi:nodetypes="cccc" />
      </g>
      <g
         id="g3929">
        <path
           style="fill:#100f00;fill-opacity:1;stroke:#000000;stroke-width:1px;stroke-linecap:butt;stroke-linejoin:miter;stroke-opacity:1"
           d="m 144.62607,409.54672 c -7.5563,8.05716 -10.02573,10.30074 -12.15096,12.15096 2.06155,2.8477 1.80792,6.15844 7.40912,8.29821 5.00041,0.62177 8.52159,0.0602 11.55823,-0.88909 6.03848,-6.01375 22.49806,-14.23803 16.8928,-17.7819 l -9.18731,-7.11275"
           id="path3927"
           inkscape:connector-curvature="0"
           sodipodi:nodetypes="cccccc" />
        <path
           style="fill:#171500;fill-opacity:1;stroke:#000000;stroke-width:1px;stroke-linecap:butt;stroke-linejoin:miter;stroke-opacity:1"
           d="m 172.70857,376.53645 c -13.4396,3.97619 -34.54148,4.94219 -38.17,12.77273 4.48507,6.71989 9.03831,13.43221 10.05895,20.53704 l 14.66932,-5.4486 c -3.52526,-2.93386 -5.94424,-5.86773 -6.70597,-8.80159 6.58005,-12.6733 27.15415,-9.3534 40.73122,-14.0301"
           id="path3925"
           inkscape:connector-curvature="0"
           sodipodi:nodetypes="cccccc" />
      </g>
      <flowRoot
         transform="matrix(0.93372812,-0.52276267,0.50008271,0.97607493,-83.967612,219.75129)"
         style="font-size:40px;font-style:normal;font-weight:normal;line-height:125%;letter-spacing:0px;word-spacing:0px;opacity:0.22900002;fill:#000000;fill-opacity:1;stroke:none;font-family:Sans"
         id="flowRoot3985"
         xml:space="preserve"><flowRegion
           id="flowRegion3987"><rect
             y="206.4274"
             x="153.2077"
             height="45.655025"
             width="127.74625"
             id="rect3989" /></flowRegion><flowPara
           id="flowPara3991">MILAN</flowPara></flowRoot>      <g
         transform="translate(-90.007688,104.65532)"
         id="g3891">
        <path
           style="fill:#2e2e2e;fill-opacity:1;stroke:#000000;stroke-width:1px;stroke-linecap:butt;stroke-linejoin:miter;stroke-opacity:1"
           d="m 304.64822,189.05889 c 1.18214,9.68278 11.52622,15.13698 22.8201,20.15281 l 9.78004,2.37092 c 25.59474,-3.65279 32.26939,-12.56115 44.7511,-19.85645 6.58016,8.00185 8.35922,16.0037 9.48367,24.00555 l -2.07455,14.52188 c -1.71708,6.75987 -6.12693,9.48059 -10.9655,11.55824 -24.14191,-6.70058 -34.66309,-12.75255 -42.38018,-18.67099 -8.73132,1.63229 -14.44349,3.86842 -34.37833,3.26001 -15.19664,-5.59913 -29.25367,-11.55438 -32.00741,-21.04191 -1.87698,3.67804 -3.75395,5.98144 -5.63093,3.55638 4.08416,-7.55408 0.0484,-5.27872 -0.59273,-7.11276 l -22.52374,2.07456 15.70734,-6.52002 -17.78189,-28.7474 19.85645,12.15096 5.33457,13.92915 c 0.88907,-4.09985 2.43962,-5.05762 4.44547,-3.85275 4.20023,2.78631 4.01806,5.83041 3.55638,8.89095 6.20677,-6.09817 17.70974,-9.3075 32.60014,-10.66913 z"
           id="path3016"
           inkscape:connector-curvature="0" />
        <g
           id="g3887"
           transform="translate(-0.20956163,-18.650985)">
          <path
             id="path3885"
             d="m 386.06612,233.93817 c -0.94949,-4.63267 -0.69209,-9.80174 -8.4464,-11.41005 -10.38294,8.53177 -23.18105,8.00663 -34.97106,11.26186 7.73824,6.23169 9.59313,12.9404 30.82195,18.07826 11.3283,-0.0762 12.55566,-8.51173 12.59551,-17.93007 z"
             style="fill:#ffffff;fill-opacity:1;stroke:#000000;stroke-width:1px;stroke-linecap:butt;stroke-linejoin:miter;stroke-opacity:1"
             inkscape:connector-curvature="0" />
          <path
             id="path3883"
             d="m 297.82135,214.83229 c 4.4838,6.39163 15.98724,12.78326 23.9948,19.17489 -17.67048,11.17618 -31.59472,2.45045 -44.84619,-9.8494 z"
             style="fill:#ffffff;fill-opacity:1;stroke:#000000;stroke-width:1px;stroke-linecap:butt;stroke-linejoin:miter;stroke-opacity:1"
             inkscape:connector-curvature="0" />
        </g>
      </g>
      <path
         sodipodi:nodetypes="cccccccc"
         inkscape:connector-curvature="0"
         id="path3787"
         d="m 321.3104,333.34242 68.11308,22.85861 30.3774,2.96364 c 1.61222,4.14501 0.70926,7.70959 -2.81546,10.66914 -5.87282,-5.14788 -16.17805,-3.27451 -24.59829,-2.96364 l -4.14911,-4.74185 -69.05302,-17.18916 0,0"
         style="fill:#171500;fill-opacity:1;stroke:#000000;stroke-width:1px;stroke-linecap:butt;stroke-linejoin:miter;stroke-opacity:1" />
      <path
         id="path3908"
         d="m 71.442187,304.64629 c -2.370475,8.78575 -1.404694,15.97638 4.819917,16.3458"
         style="fill:none;stroke:#000000;stroke-width:1px;stroke-linecap:round;stroke-linejoin:miter;stroke-opacity:1"
         inkscape:connector-curvature="0" />
      <g
         id="g3917">
        <path
           style="fill:none;stroke:#000000;stroke-width:1px;stroke-linecap:round;stroke-linejoin:miter;stroke-opacity:1"
           d="m 103.90443,311.89414 64.37356,20.62384"
           id="path3910"
           inkscape:connector-curvature="0" />
        <path
           style="fill:none;stroke:#000000;stroke-width:1px;stroke-linecap:round;stroke-linejoin:miter;stroke-opacity:1"
           d="m 169.11624,326.02157 -62.86849,-26.1952 2.93386,-7.96334 c -12.029177,3.8051 -26.053623,4.41776 -40.864519,3.77211 -1.05136,3.75956 -0.478933,5.84275 1.25737,8.48724 l 34.813429,1.6241"
           id="path3825"
           inkscape:connector-curvature="0" />
      </g>
      <path
         sodipodi:nodetypes="cccccccccccccccccccccc"
         inkscape:connector-curvature="0"
         d="m 75.86131,304.43672 6.286849,31.01513 m -2.829082,-31.11991 5.553383,31.95815 m -11.945012,-31.6438 6.705971,30.38643 25.042611,6.39163 -0.83825,-35.20635 m -3.2482,-68.42187 -38.349776,-2.93387 11.735451,60.77288 m 29.548195,-33.11074 -33.739427,-4.19123 -7.963342,-6.39163 m 40.864519,-10.79243 -3.562549,-5.86772 -41.912326,-4.61036 13.831068,64.54498 m 33.948987,-2.51474 -2.30518,-51.3426 -36.044602,-2.30517 10.26852,56.7912"
         style="fill:#df5024;fill-opacity:1;stroke:#000000;stroke-width:1px;stroke-linecap:butt;stroke-linejoin:miter;stroke-opacity:1"
         id="path3829" />
      <path
         inkscape:connector-curvature="0"
         id="path3838"
         d="m 63.810617,252.85674 -1.56845,-1.26117 -2.179028,-10.14574 c -1.198466,-5.58015 -2.174648,-10.15188 -2.169293,-10.15938 0.0091,-0.0128 40.251906,4.40261 40.707264,4.46633 0.205364,0.0287 0.218189,0.0436 0.640323,0.74123 l 0.430761,0.7119 -0.32598,-0.0326 c -0.179289,-0.0179 -8.659985,-0.66802 -18.84599,-1.44464 -10.186005,-0.77663 -18.61048,-1.42279 -18.721055,-1.43591 -0.184769,-0.0219 -0.198788,-0.0147 -0.173151,0.0896 0.08143,0.33134 3.805524,19.69903 3.790663,19.71389 -0.0097,0.01 -0.723416,-0.54991 -1.586064,-1.24355 z"
         style="fill:#2f5498;fill-opacity:1;stroke:#2f5498;stroke-width:0.26195204;stroke-linecap:round;stroke-linejoin:round;stroke-miterlimit:4;stroke-opacity:1;stroke-dasharray:none" />
      <path
         inkscape:connector-curvature="0"
         id="path3840"
         d="m 68.033479,256.24617 -1.333783,-1.07357 -1.899795,-9.8358 c -1.044888,-5.40969 -1.887415,-9.84818 -1.872284,-9.86331 0.02045,-0.0205 35.430625,2.66189 37.120133,2.81187 l 0.29405,0.0261 0.73682,1.21145 c 0.66307,1.09019 0.72541,1.21293 0.62278,1.22617 -0.0627,0.008 -8.047254,-0.49355 -17.743409,-1.11476 -9.696154,-0.62121 -17.701195,-1.12292 -17.788978,-1.11491 l -0.159606,0.0146 1.689919,9.32549 c 0.929455,5.12902 1.684973,9.35582 1.678928,9.39289 -0.006,0.0371 -0.611194,-0.41571 -1.344775,-1.00618 l 0,0 z"
         style="fill:#2f5498;fill-opacity:1;stroke:#2f5498;stroke-width:0.26195204;stroke-linecap:round;stroke-linejoin:round;stroke-miterlimit:4;stroke-opacity:1;stroke-dasharray:none" />
      <path
         inkscape:connector-curvature="0"
         id="path3842"
         d="m 86.719142,259.91128 c -8.84026,-1.10164 -16.091934,-2.02428 -16.114832,-2.05031 -0.04595,-0.0522 -3.331458,-18.19464 -3.29993,-18.22203 0.02478,-0.0215 34.83399,2.20519 34.85835,2.22986 0.01,0.01 0.20875,4.28535 0.44197,9.50082 0.23322,5.21546 0.4389,9.72431 0.45707,10.01966 l 0.033,0.53701 -0.15122,-0.006 c -0.0832,-0.003 -7.384167,-0.90736 -16.224428,-2.00899 l 0,0 z"
         style="fill:#2f5498;fill-opacity:1;stroke:#2f5498;stroke-width:0.26195204;stroke-linecap:round;stroke-linejoin:round;stroke-miterlimit:4;stroke-opacity:1;stroke-dasharray:none" />
      <path
         inkscape:connector-curvature="0"
         id="path3844"
         d="m 77.331754,295.05643 c -0.195011,-0.85341 -6.48976,-35.94512 -6.454209,-35.98067 0.03684,-0.0368 32.178105,3.91765 32.218235,3.96396 0.0412,0.0476 1.32612,29.51645 1.28859,29.55387 -0.0247,0.0246 -0.83666,0.21502 -1.80434,0.42308 -6.439408,1.38458 -13.133594,2.07744 -21.512611,2.22659 l -3.678012,0.0655 -0.05765,-0.2523 0,0 z"
         style="fill:#df5024;fill-opacity:1;stroke:#df5024;stroke-width:0.52390409;stroke-linecap:round;stroke-linejoin:round;stroke-miterlimit:4;stroke-opacity:1;stroke-dasharray:none" />
      <path
         inkscape:connector-curvature="0"
         id="path3846"
         d="m 70.776427,276.1399 c -2.032254,-10.52466 -3.68132,-19.14846 -3.66459,-19.16401 0.03763,-0.035 2.536296,1.94296 2.568191,2.03297 0.04004,0.113 6.525767,36.05401 6.525767,36.16289 0,0.0603 -0.363864,0.10389 -0.867179,0.10389 l -0.86718,0 -3.695009,-19.13574 z"
         style="fill:#df5024;fill-opacity:1;stroke:#df5024;stroke-width:0.52390409;stroke-linecap:round;stroke-linejoin:round;stroke-miterlimit:4;stroke-opacity:1;stroke-dasharray:none" />
      <path
         inkscape:connector-curvature="0"
         id="path3848"
         d="m 72.155611,295.19874 c -0.452991,-0.032 -0.549277,-0.0753 -0.59742,-0.26877 -0.143837,-0.57799 -8.869121,-41.36989 -8.869121,-41.46435 0,-0.0587 0.680479,0.43895 1.512175,1.10585 1.108959,0.88922 1.527717,1.28794 1.570461,1.49532 0.03206,0.15552 1.734537,8.9822 3.78329,19.61484 2.048753,10.63263 3.745286,19.391 3.770073,19.46303 0.04616,0.13415 -0.0032,0.13643 -1.169458,0.0541 z"
         style="fill:#df5024;fill-opacity:1;stroke:#df5024;stroke-width:0.52390409;stroke-linecap:round;stroke-linejoin:round;stroke-miterlimit:4;stroke-opacity:1;stroke-dasharray:none" />
      <path
         inkscape:connector-curvature="0"
         id="path3850"
         d="m 80.676305,334.72484 c -0.278618,-0.0766 -0.524933,-0.15756 -0.547367,-0.18 -0.02243,-0.0224 -1.481258,-6.56855 -3.241831,-14.54693 -1.760572,-7.97838 -3.224507,-14.58184 -3.253187,-14.67435 -0.04333,-0.13976 0.09447,-0.18607 0.814546,-0.27378 0.476681,-0.0581 0.894017,-0.0767 0.927414,-0.0414 0.0334,0.0353 1.393187,6.66541 3.021754,14.73353 1.628567,8.06812 2.985531,14.7754 3.015475,14.90507 0.06293,0.27251 -0.003,0.27947 -0.736804,0.0778 l 0,0 z"
         style="fill:#df5024;fill-opacity:1;stroke:#df5024;stroke-width:0.52390409;stroke-linecap:round;stroke-linejoin:round;stroke-miterlimit:4;stroke-opacity:1;stroke-dasharray:none" />
      <path
         sodipodi:nodetypes="ccccssc"
         inkscape:connector-curvature="0"
         id="path3852"
         d="m 83.390299,335.41352 c -0.341916,-0.0979 -0.660501,-0.24554 -0.707965,-0.32815 -0.101965,-0.17746 -6.076902,-29.76622 -6.126792,-30.24023 0.282582,0.13657 0.464942,0.26733 1.051393,0.19163 1.048909,-0.13536 1.119475,-0.50078 1.168373,-0.28663 0.06168,0.27013 5.393829,30.72452 5.393829,30.80665 0,0.0761 -0.03463,0.0698 -0.778838,-0.14327 z"
         style="fill:#df5024;fill-opacity:1;stroke:#df5024;stroke-width:0.52390409;stroke-linecap:round;stroke-linejoin:round;stroke-miterlimit:4;stroke-opacity:1;stroke-dasharray:none" />
      <path
         inkscape:connector-curvature="0"
         id="path3921"
         d="m 136.32167,321.68104 -31.78513,-10.19475 -0.0406,-2.55446 c -0.0352,-2.21371 -0.009,-2.57786 0.1993,-2.7299 0.14029,-0.10258 0.2187,-0.32582 0.18881,-0.53759 -0.0448,-0.31744 -0.15173,-0.37578 -0.86612,-0.47253 -0.44826,-0.0607 -8.250061,-0.44688 -17.33735,-0.85815 -9.087289,-0.41127 -16.602111,-0.77489 -16.699606,-0.80805 -0.339885,-0.11559 -1.370181,-2.50264 -1.504682,-3.48613 -0.122815,-0.89805 -0.02386,-2.53488 0.209436,-3.46442 l 0.104863,-0.4178 1.202462,0.0994 c 2.389077,0.19756 13.969135,0.11304 17.576622,-0.12828 7.251302,-0.48507 13.737105,-1.47408 18.892075,-2.88082 0.89586,-0.24447 1.6478,-0.42552 1.67099,-0.40233 0.0327,0.0327 -2.09331,5.91483 -2.55293,7.06353 -0.0786,0.19638 5.31663,2.49113 31.1419,13.24563 17.18032,7.15446 31.28,13.04896 31.33261,13.09889 0.14804,0.14048 0.32373,5.64929 0.17972,5.63505 -0.07,-0.007 -14.43051,-4.60021 -31.91234,-10.20732 z"
         style="fill:#171500;fill-opacity:1;stroke:#171500;stroke-width:0.74091226;stroke-linecap:round;stroke-linejoin:round;stroke-miterlimit:4;stroke-opacity:1;stroke-dasharray:none" />
      <path
         inkscape:connector-curvature="0"
         id="path3923"
         d="m 74.507766,319.99147 c -1.01231,-0.4164 -1.489782,-0.77803 -2.125824,-1.61007 -1.367892,-1.78942 -1.84917,-4.91338 -1.34284,-8.71633 0.173837,-1.30566 0.621834,-3.55917 0.918891,-4.6222 0.232279,-0.83122 0.517767,0.1774 2.097522,7.41042 0.921014,4.21693 1.671188,7.71716 1.667052,7.77828 -0.01252,0.18514 -0.336792,0.12105 -1.214801,-0.2401 l 0,0 z"
         style="fill:#171500;fill-opacity:1;stroke:#171500;stroke-width:0.74091226;stroke-linecap:round;stroke-linejoin:round;stroke-miterlimit:4;stroke-opacity:1;stroke-dasharray:none" />
      <g
         id="flowRoot3941"
         style="font-size:40px;font-style:normal;font-variant:normal;font-weight:bold;font-stretch:normal;line-height:125%;letter-spacing:0px;word-spacing:0px;fill:#ffffff;fill-opacity:1;stroke:none;font-family:Courier New;-inkscape-font-specification:Courier New Bold"
         transform="matrix(1.5549952,0.22591269,-0.07025643,1.5779692,-57.424185,-372.18842)">
        <path
           inkscape:connector-curvature="0"
           id="path3950"
           d="m 195.21484,439.64022 0,5.03906 1.44532,0 c 0.96353,10e-6 1.64712,0.18881 2.05078,0.56641 0.41665,0.36459 0.62499,0.84636 0.625,1.44531 -1e-5,0.58594 -0.20835,1.06771 -0.625,1.44531 -0.40366,0.36459 -1.08725,0.54688 -2.05078,0.54688 l -6.07422,0 c -0.96355,0 -1.65365,-0.18229 -2.07032,-0.54688 -0.40364,-0.3776 -0.60546,-0.86588 -0.60546,-1.46484 0,-0.58593 0.20833,-1.06119 0.625,-1.42578 0.41666,-0.3776 1.10025,-0.5664 2.05078,-0.56641 l 0.625,0 0,-15.66406 -0.625,0 c -0.96355,2e-5 -1.65365,-0.18227 -2.07032,-0.54687 -0.40364,-0.37759 -0.60546,-0.86587 -0.60546,-1.46485 0,-0.59893 0.20182,-1.0807 0.60546,-1.44531 0.41667,-0.37758 1.10677,-0.56638 2.07032,-0.56641 l 9.0625,0.0195 c 2.8255,3e-5 5.013,0.70315 6.5625,2.10938 1.56248,1.39325 2.34373,3.09247 2.34375,5.09766 -2e-5,1.25001 -0.36461,2.38933 -1.09375,3.41796 -0.72919,1.01564 -1.82945,1.92059 -3.30078,2.71485 0.84633,0.7422 1.75128,1.69272 2.71484,2.85156 0.59894,0.7422 1.40623,1.90105 2.42187,3.47656 1.01561,10e-6 1.68618,0.10417 2.01172,0.3125 0.58592,0.40365 0.87889,0.97006 0.87891,1.69922 -2e-5,0.58594 -0.20185,1.06771 -0.60547,1.44531 -0.40367,0.36459 -1.08726,0.54688 -2.05078,0.54688 l -2.28516,0 c -3.2422,-5.01302 -5.931,-8.02734 -8.0664,-9.04297 l -3.96485,0 m 0,-4.00391 3.125,0 c 1.15885,2e-5 2.194,-0.17576 3.10547,-0.52734 1.22395,-0.46874 2.04426,-0.96353 2.46094,-1.48437 0.42967,-0.52082 0.64451,-1.03514 0.64453,-1.54297 -2e-5,-0.75519 -0.40366,-1.45181 -1.21094,-2.08985 -0.8073,-0.65102 -1.98569,-0.97654 -3.53515,-0.97656 l -4.58985,0 0,6.62109" />
      </g>
    </g>
    <flowRoot
       xml:space="preserve"
       id="flowRoot4029"
       style="font-size:40px;font-style:normal;font-weight:normal;line-height:125%;letter-spacing:0px;word-spacing:0px;fill:#000000;fill-opacity:1;stroke:none;font-family:Sans"
       transform="matrix(2.6050402,0,0,2.6050402,-3377.6047,31.811459)"><flowRegion
         id="flowRegion4031"><rect
           id="rect4033"
           width="697.13934"
           height="101.63052"
           x="2065.0115"
           y="65.955208" /></flowRegion><flowPara
         id="flowPara4035"
         style="font-weight:bold;-inkscape-font-specification:Sans Bold">Angry Rubber ha ocultado una </flowPara><flowPara
         id="flowPara4037"
         style="font-weight:bold;-inkscape-font-specification:Sans Bold">de nuestras páginas</flowPara></flowRoot>    <flowRoot
       xml:space="preserve"
       id="flowRoot4029-9"
       style="font-size:40px;font-style:normal;font-weight:normal;line-height:125%;letter-spacing:0px;word-spacing:0px;fill:#000000;fill-opacity:1;stroke:none;font-family:Sans"
       transform="matrix(2.6050402,0,0,2.6050402,-3484.7163,960.3481)"><flowRegion
         id="flowRegion4031-7"><rect
           id="rect4033-1"
           width="509.74985"
           height="104.32679"
           x="2065.0115"
           y="65.955208" /></flowRegion><flowPara
         id="flowPara4037-3"
         style="font-weight:bold;-inkscape-font-specification:Sans Bold">Página no encontrada</flowPara><flowPara
         id="flowPara4071"
         style="font-weight:bold;-inkscape-font-specification:Sans Bold">Error 404: Not Found</flowPara></flowRoot>  </g>
</svg>
